<svg xmlns="http://www.w3.org/2000/svg" viewBox="0 0 200 200">
  <path fill="#76B900" d="m101.3 53.6v-16.2c1.6-0.1 3.2-0.2 4.8-0.2 44.4-1.4 73.5 38.2 73.5 38.2s-31.4 43.6-65.1 43.6c-4.5 0-8.9-0.7-13.1-2.1v-49.2c17.3 2.1 20.8 9.7 31.1 27l23.1-19.4s-16.9-22.1-45.3-22.1c-3-0.1-6 0.1-9 0.4m0-53.6v24.2l4.8-0.3c61.7-2.1 102 50.6 102 50.6s-46.2 56.2-94.3 56.2c-4.2 0-8.3-0.4-12.4-1.1v15c3.4 0.4 6.9 0.7 10.3 0.7 44.8 0 77.2-22.9 108.6-49.9 5.2 4.2 26.5 14.3 30.9 18.7-29.8 25-99.3 45.1-138.7 45.1-3.8 0-7.4-0.2-11-0.6v21.1h170.2v-179.7h-170.4zm0 116.9v12.8c-41.4-7.4-52.9-50.5-52.9-50.5s19.9-22 52.9-25.6v14h-0.1c-17.3-2.1-30.9 14.1-30.9 14.1s7.7 27.3 31 35.2m-73.5-39.5s24.5-36.2 73.6-40v-13.2c-54.4 4.4-101.4 50.4-101.4 50.4s26.6 77 101.3 84v-14c-54.8-6.8-73.5-67.2-73.5-67.2z"></path>
</svg>